<svg viewBox="0 0 167 61" xmlns="http://www.w3.org/2000/svg">
    <g fill="#242424">
        <path d="m48.255 25.719a18.207 18.207 0 0 0 -3.746-7.081l-2.409 6.008zm-12.894 22.436a18.331 18.331 0 0 0 7.094-3.739l-6.02-2.406zm9.151-5.792a18.236 18.236 0 0 0 3.78-7.215l-6.182 1.192zm-7.392-1.541 6.316 2.522-2.517-6.313zm3.789-16.859 2.527-6.3-6.326 2.52zm.93 2.017v9.032l6.77-1.306a18.366 18.366 0 0 0 -.026-6.546zm-25.215-7.338a18.24 18.24 0 0 0 -3.78 7.216l6.182-1.193zm42.636 11.858a28.63 28.63 0 1 0 0 .012zm1.361 0a30.061 30.061 0 1 1 -30.064-30 30.03 30.03 0 0 1 30.061 30zm-26.846-18a18.472 18.472 0 0 0 -6.561.026l-1.177 6.731h9.05zm-9.759 7.684-6.316-2.522 2.515 6.313zm18.437-3.59a18.3 18.3 0 0 0 -7.23-3.774l1.2 6.169zm-16.678-3.738a18.277 18.277 0 0 0 -7.094 3.744l6.019 2.4zm-6.475 13.144-6.763 1.306a18.377 18.377 0 0 0 .027 6.548l6.744 1.174zm20.709 10.02-7.9-3.984 4 7.9zm-10.985-3.977-7.905 3.979 3.923 3.918zm1.538-.026-4.234 8.383h8.472zm-17.688 3.273a18.252 18.252 0 0 0 3.748 7.081l2.411-6.006zm7.353 1.756-2.527 6.3 6.335-2.51zm7.138 11.466a18.461 18.461 0 0 0 6.559-.026l1.178-6.73h-9.049zm-8.673-4.088a18.293 18.293 0 0 0 7.229 3.776l-1.194-6.169zm1.976-9.69 8.4-4.226-8.4-4.227zm.466-9.74 7.905 3.978-3.986-7.889zm14.966-3.911-3.986 7.889 7.905-3.978zm4.372 5.2-8.4 4.227 8.4 4.226zm-14.139-5.665h8.467l-4.232 8.382z"/>
    </g>
</svg>
